<svg width="70" height="75" viewBox="0 0 70 75" fill="none" xmlns="http://www.w3.org/2000/svg">
<rect x="21.5385" width="18.3077" height="65.3571" fill="#1E1E1E"/>
<path d="M10.7692 0H39.8461V18.2143L10.7692 18V0Z" fill="#1E1E1E"/>
<path d="M10.578 0.00607854L19.5 18L1.49999 18L10.578 0.00607854Z" fill="#1E1E1E"/>
<path d="M66.4414 60.4297V65H48.582V61.1328L56.8086 52.4844C57.5352 51.6523 58.1211 50.9082 58.5664 50.252C59.0117 49.584 59.334 48.9805 59.5332 48.4414C59.7441 47.9023 59.8496 47.416 59.8496 46.9824C59.8496 46.2441 59.7383 45.6289 59.5156 45.1367C59.3047 44.6328 58.9883 44.252 58.5664 43.9941C58.1562 43.7363 57.6465 43.6074 57.0371 43.6074C56.4277 43.6074 55.8945 43.7832 55.4375 44.1348C54.9805 44.4863 54.623 44.9668 54.3652 45.5762C54.1191 46.1855 53.9961 46.8711 53.9961 47.6328H48.0547C48.0547 46.0625 48.4355 44.627 49.1973 43.3262C49.9707 42.0254 51.043 40.9883 52.4141 40.2148C53.7852 39.4297 55.373 39.0371 57.1777 39.0371C59.0645 39.0371 60.6465 39.3301 61.9238 39.916C63.2012 40.502 64.1621 41.3516 64.8066 42.4648C65.4629 43.5664 65.791 44.8965 65.791 46.4551C65.791 47.3457 65.6504 48.2012 65.3691 49.0215C65.0879 49.8418 64.6836 50.6562 64.1562 51.4648C63.6289 52.2617 62.9844 53.082 62.2227 53.9258C61.4727 54.7695 60.6172 55.666 59.6562 56.6152L56.3516 60.4297H66.4414Z" fill="#1E1E1E"/>
<path d="M60.988 2.7832L60.988 5.57617L51.0954 8.75L60.988 11.9238L60.988 14.7168L46.7692 9.88281L46.7692 7.61719L60.988 2.7832ZM60.988 1.08398L60.988 3.97461L50.0895 4.51172L46.7692 4.51172L46.7692 1.08398L60.988 1.08398ZM60.988 13.5254L60.988 16.4258L46.7692 16.4258L46.7692 12.9883L50.0895 12.9883L60.988 13.5254ZM46.7692 23.2422L46.7692 20.0879L49.4059 20.1074L49.4059 23.2422C49.4059 23.8932 49.5622 24.4434 49.8747 24.8926C50.1872 25.3483 50.6527 25.6934 51.2712 25.9277C51.8962 26.1686 52.6644 26.2891 53.5759 26.2891L54.1911 26.2891C54.8747 26.2891 55.4737 26.2207 55.988 26.084C56.5088 25.9538 56.9418 25.7585 57.2868 25.498C57.6384 25.2376 57.902 24.9121 58.0778 24.5215C58.2536 24.1374 58.3415 23.6947 58.3415 23.1934L58.3415 20.0293L60.988 20.0293L60.988 23.1934C60.988 24.1569 60.822 25.0391 60.4899 25.8398C60.1644 26.6471 59.6957 27.3437 59.0837 27.9297C58.4782 28.5221 57.7588 28.9779 56.9255 29.2969C56.0987 29.6224 55.1807 29.7852 54.1716 29.7852L53.5759 29.7852C52.5733 29.7852 51.6553 29.6224 50.822 29.2969C49.9886 28.9779 49.2692 28.5254 48.6638 27.9395C48.0583 27.3535 47.5895 26.6602 47.2575 25.8594C46.932 25.0651 46.7692 24.1927 46.7692 23.2422ZM60.988 22.0508L46.7692 22.0508L46.7692 18.623L60.988 18.623L60.988 22.0508Z" fill="#B30000"/>
</svg>
